<svg xmlns="http://www.w3.org/2000/svg" width="255.69" height="72.06" viewBox="0 0 255.69 72.06"><defs><style>.cls-1{fill:#ebd8b2;}.cls-2{fill:#d49c96;}.cls-3{fill:#d8b0f7;}.cls-4{fill:#c0d496;}</style></defs><g id="Layer_2" data-name="Layer 2"><g id="Layer_1-2" data-name="Layer 1"><path class="cls-1" d="M22.09,37.8H1.68a1.94,1.94,0,0,1-1.3-.35A1.44,1.44,0,0,1,0,36.31v-.82c0-.69,1-.69,1-.69H2L22.09,34"/><path class="cls-2" d="M55.52,72H20.79a2.7,2.7,0,0,1-2-.64,2.66,2.66,0,0,1-.63-2l.15-67.45C18.31.64,19.49,0,21.83,0h.69C24.83,0,26,.66,26,2l-.14,63.45H55.52"/><path class="cls-3" d="M55,65.41l198.73.06a1.41,1.41,0,0,1,1.3.61,4,4,0,0,1,.38,2v1.42a3.8,3.8,0,0,1-.39,2,1.39,1.39,0,0,1-1.3.63L55,72"/><path class="cls-2" d="M71.77,60.23a17.44,17.44,0,0,1-8-6.88A20.32,20.32,0,0,1,61,42.6l.1-39.55c0-1.3,1.16-1.95,3.47-1.94h.69c2.31,0,3.46.66,3.46,2l-.11,39.85a11.52,11.52,0,0,0,2.09,6.79,13.8,13.8,0,0,0,5.75,4.65,21.09,21.09,0,0,0,16.45,0,14,14,0,0,0,5.75-4.65A11.43,11.43,0,0,0,100.77,43l.11-39.84c0-1.31,1.16-1.95,3.47-1.95h.73c2.28,0,3.42.66,3.41,2l-.1,39.55a20.26,20.26,0,0,1-2.76,10.73,17.37,17.37,0,0,1-8.08,6.84,31.46,31.46,0,0,1-12.89,2.33A31.55,31.55,0,0,1,71.77,60.23Z"/><path class="cls-2" d="M126.21,61.93a1.55,1.55,0,0,1-.83-1.44l.15-57.27c0-1.31,1.18-1.95,3.53-1.95h3.07q2.88,0,3.66,1.62l16.33,28.51,2.23,5.48,2.26-5L173.14,3c.56-1.07,1.76-1.61,3.62-1.6h2.88c2.31,0,3.47.66,3.46,2L183,60.64c0,1.27-1.16,1.9-3.47,1.9h-.59a5.73,5.73,0,0,1-2.68-.48,1.55,1.55,0,0,1-.83-1.44l.13-46.73-.15.39L158,44.27a2.4,2.4,0,0,1-.78.85,2.11,2.11,0,0,1-1.12.27h-3.47a2.11,2.11,0,0,1-2-1.13l-17.59-31L133,60.51c0,1.27-1.16,1.9-3.47,1.9h-.59A5.75,5.75,0,0,1,126.21,61.93Z"/><path class="cls-2" d="M202.55,55q-6.83-7.94-6.78-23.16t6.87-23q6.84-7.77,19.92-7.73T242.51,9q6.83,7.8,6.78,23t-6.9,23.12q-6.85,7.9-20,7.86T202.55,55Zm33.94-4.87q4.9-6.25,4.94-18.17t-4.82-18.06q-4.83-6.13-14.07-6.16t-14,6.09q-4.84,6.12-4.88,18t4.79,18.22q4.82,6.27,14,6.29T236.49,50.16Z"/><path class="cls-4" d="M183,65.2l72.07,0c.22,0,.38.21.47.62a10.16,10.16,0,0,1,.14,2v1.41a9.19,9.19,0,0,1-.15,1.95c-.09.43-.25.64-.47.64L183,71.78"/></g></g></svg>