<svg xmlns="http://www.w3.org/2000/svg" width="340.84" height="91.98" viewBox="0 0 340.84 91.98"><defs><style>.cls-1{fill:#d49c96;}.cls-2{fill:#ebd8b2;}</style></defs><g id="Layer_2" data-name="Layer 2"><g id="Layer_1-2" data-name="Layer 1"><path class="cls-1" d="M1.23,89.67A5.33,5.33,0,0,1,0,85.77V4.91A3.37,3.37,0,0,1,1.88,1.77a12.43,12.43,0,0,1,5.84-1h4.34A12.43,12.43,0,0,1,17.9,1.77a3.37,3.37,0,0,1,1.88,3.14V74.07H48.37a3.16,3.16,0,0,1,2.93,1.52,9.85,9.85,0,0,1,.9,4.84v4a10.06,10.06,0,0,1-.9,4.91,3.16,3.16,0,0,1-2.93,1.52H5.13A5.32,5.32,0,0,1,1.23,89.67Z"/><path class="cls-1" d="M78.87,88.3A28.07,28.07,0,0,1,66.13,77.65q-4.39-7-4.4-16.79V4.91a3.37,3.37,0,0,1,1.88-3.14,12.4,12.4,0,0,1,5.84-1h4.33A12.25,12.25,0,0,1,79.6,1.77a3.4,3.4,0,0,1,1.84,3.14V59.56A14.68,14.68,0,0,0,89.81,73.1a22,22,0,0,0,18.23,0,15.27,15.27,0,0,0,6.25-5.52,14.69,14.69,0,0,0,2.23-8V4.91a3.39,3.39,0,0,1,1.85-3.14,12.18,12.18,0,0,1,5.81-1h4.26a12.23,12.23,0,0,1,5.81,1.05,3.39,3.39,0,0,1,1.84,3.14v56q0,9.83-4.4,16.79A28,28,0,0,1,118.94,88.3Q110.6,92,98.91,92T78.87,88.3Z"/><path class="cls-1" d="M153.49,87.07V4.91a3.37,3.37,0,0,1,1.88-3.14,12.43,12.43,0,0,1,5.84-1H168q6.13,0,8,3.54L197.6,42.6l1.08,1.87,1.09-2.24,21.73-38c1.3-2.36,4-3.54,8.09-3.54h6.71Q244,.72,244,4.91V87.07c0,2.7-2.57,4-7.72,4h-3.75c-5.16,0-7.73-1.34-7.73-4V33.86l-.51-.14L205.69,67a5.76,5.76,0,0,1-5.13,2.45h-3.68a6.73,6.73,0,0,1-3-.61,5.65,5.65,0,0,1-2.1-1.84l-18.7-33.28-.5.14V87.07c0,2.7-2.55,4-7.65,4h-3.69C156.06,91.11,153.49,89.77,153.49,87.07Z"/><path class="cls-1" d="M277.34,86.64a34.39,34.39,0,0,1-14-15.63q-4.8-10.29-4.8-25.09t4.8-25a34,34,0,0,1,14-15.59Q286.55,0,299.69,0T322.1,5.31a33.76,33.76,0,0,1,14,15.59q4.77,10.29,4.77,25T336.07,71a34.11,34.11,0,0,1-14,15.63Q312.91,92,299.69,92T277.34,86.64Zm37.94-19q5.28-7.47,5.27-21.69t-5.27-21.59Q310,17,299.69,17t-15.56,7.4q-5.31,7.4-5.31,21.55t5.35,21.69q5.34,7.47,15.52,7.47T315.28,67.61Z"/><path class="cls-2" d="M48.76,89.86a3.63,3.63,0,0,1-.82-2.64V32.53a2.28,2.28,0,0,1,1.25-2.12,8.29,8.29,0,0,1,3.91-.71H56a8.25,8.25,0,0,1,3.9.71,2.29,2.29,0,0,1,1.26,2.12V79.31H80.27a2.1,2.1,0,0,1,2,1,6.73,6.73,0,0,1,.6,3.27v2.73a6.87,6.87,0,0,1-.6,3.32,2.1,2.1,0,0,1-2,1H51.36A3.53,3.53,0,0,1,48.76,89.86Z"/><path class="cls-2" d="M100.66,88.93a18.71,18.71,0,0,1-8.52-7.2A21,21,0,0,1,89.2,70.38V32.53a2.3,2.3,0,0,1,1.25-2.12,8.29,8.29,0,0,1,3.91-.71h2.9a8.1,8.1,0,0,1,3.88.71,2.3,2.3,0,0,1,1.23,2.12v37a10,10,0,0,0,5.6,9.15A13.24,13.24,0,0,0,114.05,80a13.39,13.39,0,0,0,6.11-1.34,10.21,10.21,0,0,0,4.17-3.73,10,10,0,0,0,1.5-5.42v-37a2.3,2.3,0,0,1,1.23-2.12,8.1,8.1,0,0,1,3.88-.71h2.85a8.15,8.15,0,0,1,3.89.71,2.3,2.3,0,0,1,1.23,2.12V70.38A20.94,20.94,0,0,1,136,81.73a18.74,18.74,0,0,1-8.51,7.2,32.71,32.71,0,0,1-13.4,2.49A32.69,32.69,0,0,1,100.66,88.93Z"/><path class="cls-2" d="M150.54,88.1V32.53a2.3,2.3,0,0,1,1.25-2.12,8.29,8.29,0,0,1,3.91-.71h4.54q4.09,0,5.36,2.39L180,58l.72,1.27.72-1.51L196,32.09q1.31-2.39,5.4-2.39h4.49c3.45,0,5.17.95,5.17,2.83V88.1q0,2.73-5.17,2.73h-2.51q-5.16,0-5.16-2.73v-36l-.34-.09L185.43,74.53A3.85,3.85,0,0,1,182,76.19h-2.46a4.38,4.38,0,0,1-2-.42,3.76,3.76,0,0,1-1.4-1.24L163.62,52l-.34.09v36q0,2.73-5.12,2.73H155.7Q150.54,90.83,150.54,88.1Z"/><path class="cls-2" d="M233.33,87.81A23.15,23.15,0,0,1,224,77.24q-3.21-7-3.21-17T224,43.35a23,23,0,0,1,9.36-10.55,33,33,0,0,1,29.92,0,22.8,22.8,0,0,1,9.34,10.55q3.18,7,3.18,16.92t-3.18,17a23,23,0,0,1-9.34,10.57q-6.15,3.61-15,3.61A29,29,0,0,1,233.33,87.81Zm25.36-12.87q3.53-5.06,3.52-14.67t-3.52-14.6q-3.53-5-10.42-5t-10.4,5q-3.56,5-3.55,14.58t3.57,14.67q3.57,5.06,10.38,5T258.69,74.94Z"/></g></g></svg>