<svg xmlns="http://www.w3.org/2000/svg" width="231.52" height="63.21" viewBox="0 0 231.52 63.21"><defs><style>.cls-1{fill:#ebd8b2;stroke:#d49c96;stroke-miterlimit:10;}</style></defs><g id="Layer_2" data-name="Layer 2"><g id="Layer_1-2" data-name="Layer 1"><path class="cls-1" d="M7.34,80a3.6,3.6,0,0,1-.83-2.64V22.69a2.28,2.28,0,0,1,1.27-2.12,8.42,8.42,0,0,1,4-.71h2.93a8.5,8.5,0,0,1,4,.71,2.29,2.29,0,0,1,1.26,2.12V69.47H39.22a2.13,2.13,0,0,1,2,1,6.71,6.71,0,0,1,.61,3.27V76.5a6.85,6.85,0,0,1-.61,3.32,2.14,2.14,0,0,1-2,1H10A3.61,3.61,0,0,1,7.34,80Z" transform="translate(-6.01 -18.87)"/><path class="cls-1" d="M59.85,79.09a18.93,18.93,0,0,1-8.62-7.2,20.88,20.88,0,0,1-3-11.36V22.69a2.3,2.3,0,0,1,1.27-2.12,8.5,8.5,0,0,1,4-.71h2.93a8.3,8.3,0,0,1,3.93.71,2.29,2.29,0,0,1,1.24,2.12v37a9.91,9.91,0,0,0,5.67,9.15,13.51,13.51,0,0,0,6.15,1.34,13.69,13.69,0,0,0,6.18-1.34,10.29,10.29,0,0,0,4.22-3.73,9.94,9.94,0,0,0,1.51-5.42v-37a2.3,2.3,0,0,1,1.25-2.12,8.3,8.3,0,0,1,3.93-.71h2.88a8.3,8.3,0,0,1,3.93.71,2.3,2.3,0,0,1,1.25,2.12V60.53a20.88,20.88,0,0,1-3,11.36A18.93,18.93,0,0,1,87,79.09,33.42,33.42,0,0,1,73.4,81.58,33.42,33.42,0,0,1,59.85,79.09Z" transform="translate(-6.01 -18.87)"/><path class="cls-1" d="M110.31,78.26V22.69a2.3,2.3,0,0,1,1.27-2.12,8.5,8.5,0,0,1,4-.71h4.59c2.77,0,4.57.8,5.42,2.39l14.6,25.93.73,1.27.73-1.51,14.7-25.69q1.32-2.38,5.47-2.39h4.54q5.22,0,5.22,2.83V78.26q0,2.73-5.22,2.73h-2.54q-5.22,0-5.22-2.73v-36l-.35-.1L145.62,64.68a3.9,3.9,0,0,1-3.47,1.66h-2.49a4.51,4.51,0,0,1-2-.41,3.83,3.83,0,0,1-1.42-1.25L123.55,42.17l-.34.1v36Q123.21,81,118,81h-2.49C112.06,81,110.31,80.08,110.31,78.26Z" transform="translate(-6.01 -18.87)"/><path class="cls-1" d="M194.08,78a23.18,23.18,0,0,1-9.47-10.58q-3.26-6.95-3.25-17t3.25-16.92A23,23,0,0,1,194.08,23a33.7,33.7,0,0,1,30.27,0,22.91,22.91,0,0,1,9.45,10.55q3.22,7,3.22,16.92t-3.22,17A23.08,23.08,0,0,1,224.35,78q-6.22,3.61-15.16,3.61A29.63,29.63,0,0,1,194.08,78ZM219.74,65.1Q223.3,60,223.3,50.43t-3.56-14.6q-3.57-5-10.55-5t-10.52,5q-3.58,5-3.59,14.58t3.61,14.67q3.62,5.06,10.5,5.05T219.74,65.1Z" transform="translate(-6.01 -18.87)"/></g></g></svg>